<mxfile host="app.diagrams.net" agent="Mozilla/5.0 (Windows NT 10.0; Win64; x64) AppleWebKit/537.36 (KHTML, like Gecko) Chrome/130.0.0.0 Safari/537.36" version="24.7.17">
  <diagram name="Página-1" id="NBsWjfyjTXoJUxccQAAb">
    <mxGraphModel dx="1104" dy="522" grid="1" gridSize="10" guides="1" tooltips="1" connect="1" arrows="1" fold="1" page="1" pageScale="1" pageWidth="827" pageHeight="1169" math="0" shadow="0">
      <root>
        <mxCell id="0" />
        <mxCell id="1" parent="0" />
        <mxCell id="u7_L2m57r1zxXIOoEbh2-12" value="cliente" style="swimlane;horizontal=0;whiteSpace=wrap;html=1;align=center;" vertex="1" parent="1">
          <mxGeometry x="10" y="570" width="1060" height="200" as="geometry" />
        </mxCell>
        <mxCell id="u7_L2m57r1zxXIOoEbh2-31" style="edgeStyle=orthogonalEdgeStyle;rounded=0;orthogonalLoop=1;jettySize=auto;html=1;exitX=1;exitY=0.5;exitDx=0;exitDy=0;entryX=0.5;entryY=1;entryDx=0;entryDy=0;" edge="1" parent="u7_L2m57r1zxXIOoEbh2-12" source="u7_L2m57r1zxXIOoEbh2-27" target="u7_L2m57r1zxXIOoEbh2-30">
          <mxGeometry relative="1" as="geometry" />
        </mxCell>
        <mxCell id="u7_L2m57r1zxXIOoEbh2-27" value="usuário chega no caixa" style="rounded=1;whiteSpace=wrap;html=1;" vertex="1" parent="u7_L2m57r1zxXIOoEbh2-12">
          <mxGeometry x="130" y="75" width="120" height="60" as="geometry" />
        </mxCell>
        <mxCell id="u7_L2m57r1zxXIOoEbh2-29" style="edgeStyle=orthogonalEdgeStyle;rounded=0;orthogonalLoop=1;jettySize=auto;html=1;exitX=1;exitY=0.5;exitDx=0;exitDy=0;" edge="1" parent="u7_L2m57r1zxXIOoEbh2-12" source="u7_L2m57r1zxXIOoEbh2-28" target="u7_L2m57r1zxXIOoEbh2-27">
          <mxGeometry relative="1" as="geometry" />
        </mxCell>
        <mxCell id="u7_L2m57r1zxXIOoEbh2-28" value="" style="ellipse;" vertex="1" parent="u7_L2m57r1zxXIOoEbh2-12">
          <mxGeometry x="50" y="90" width="30" height="30" as="geometry" />
        </mxCell>
        <mxCell id="u7_L2m57r1zxXIOoEbh2-30" value="faz a leitura biométrica" style="rounded=1;whiteSpace=wrap;html=1;" vertex="1" parent="u7_L2m57r1zxXIOoEbh2-12">
          <mxGeometry x="260" y="15" width="120" height="60" as="geometry" />
        </mxCell>
        <mxCell id="u7_L2m57r1zxXIOoEbh2-50" style="edgeStyle=orthogonalEdgeStyle;rounded=0;orthogonalLoop=1;jettySize=auto;html=1;exitX=0.5;exitY=1;exitDx=0;exitDy=0;exitPerimeter=0;entryX=0;entryY=0.5;entryDx=0;entryDy=0;" edge="1" parent="u7_L2m57r1zxXIOoEbh2-12" target="u7_L2m57r1zxXIOoEbh2-49">
          <mxGeometry relative="1" as="geometry">
            <mxPoint x="457.5" y="120" as="sourcePoint" />
          </mxGeometry>
        </mxCell>
        <mxCell id="u7_L2m57r1zxXIOoEbh2-55" style="edgeStyle=orthogonalEdgeStyle;rounded=0;orthogonalLoop=1;jettySize=auto;html=1;exitX=1;exitY=0.5;exitDx=0;exitDy=0;entryX=0;entryY=0.5;entryDx=0;entryDy=0;" edge="1" parent="u7_L2m57r1zxXIOoEbh2-12" source="u7_L2m57r1zxXIOoEbh2-49" target="u7_L2m57r1zxXIOoEbh2-54">
          <mxGeometry relative="1" as="geometry" />
        </mxCell>
        <mxCell id="u7_L2m57r1zxXIOoEbh2-49" value="Informe a senha" style="rounded=1;whiteSpace=wrap;html=1;" vertex="1" parent="u7_L2m57r1zxXIOoEbh2-12">
          <mxGeometry x="532.5" y="115" width="120" height="60" as="geometry" />
        </mxCell>
        <mxCell id="u7_L2m57r1zxXIOoEbh2-44" value="" style="points=[[0.145,0.145,0],[0.5,0,0],[0.855,0.145,0],[1,0.5,0],[0.855,0.855,0],[0.5,1,0],[0.145,0.855,0],[0,0.5,0]];shape=mxgraph.bpmn.event;html=1;verticalLabelPosition=bottom;labelBackgroundColor=#ffffff;verticalAlign=top;align=center;perimeter=ellipsePerimeter;outlineConnect=0;aspect=fixed;outline=boundInt;symbol=cancel;" vertex="1" parent="u7_L2m57r1zxXIOoEbh2-12">
          <mxGeometry x="572.5" y="15" width="50" height="50" as="geometry" />
        </mxCell>
        <mxCell id="u7_L2m57r1zxXIOoEbh2-53" style="edgeStyle=orthogonalEdgeStyle;rounded=0;orthogonalLoop=1;jettySize=auto;html=1;exitX=0.5;exitY=1;exitDx=0;exitDy=0;exitPerimeter=0;" edge="1" parent="u7_L2m57r1zxXIOoEbh2-12" source="u7_L2m57r1zxXIOoEbh2-44">
          <mxGeometry relative="1" as="geometry">
            <mxPoint x="597.5" y="105" as="targetPoint" />
          </mxGeometry>
        </mxCell>
        <mxCell id="u7_L2m57r1zxXIOoEbh2-60" style="edgeStyle=orthogonalEdgeStyle;rounded=0;orthogonalLoop=1;jettySize=auto;html=1;" edge="1" parent="u7_L2m57r1zxXIOoEbh2-12" source="u7_L2m57r1zxXIOoEbh2-54" target="u7_L2m57r1zxXIOoEbh2-57">
          <mxGeometry relative="1" as="geometry" />
        </mxCell>
        <mxCell id="u7_L2m57r1zxXIOoEbh2-54" value="senha correta?" style="rhombus;" vertex="1" parent="u7_L2m57r1zxXIOoEbh2-12">
          <mxGeometry x="695" y="80" width="162.5" height="120" as="geometry" />
        </mxCell>
        <mxCell id="u7_L2m57r1zxXIOoEbh2-48" value="" style="points=[[0.145,0.145,0],[0.5,0,0],[0.855,0.145,0],[1,0.5,0],[0.855,0.855,0],[0.5,1,0],[0.145,0.855,0],[0,0.5,0]];shape=mxgraph.bpmn.event;html=1;verticalLabelPosition=bottom;labelBackgroundColor=#ffffff;verticalAlign=top;align=center;perimeter=ellipsePerimeter;outlineConnect=0;aspect=fixed;outline=throwing;symbol=escalation;" vertex="1" parent="u7_L2m57r1zxXIOoEbh2-12">
          <mxGeometry x="407.5" y="100" width="50" height="50" as="geometry" />
        </mxCell>
        <mxCell id="u7_L2m57r1zxXIOoEbh2-56" value="não" style="points=[[0.145,0.145,0],[0.5,0,0],[0.855,0.145,0],[1,0.5,0],[0.855,0.855,0],[0.5,1,0],[0.145,0.855,0],[0,0.5,0]];shape=mxgraph.bpmn.event;html=1;verticalLabelPosition=bottom;labelBackgroundColor=#ffffff;verticalAlign=top;align=center;perimeter=ellipsePerimeter;outlineConnect=0;aspect=fixed;outline=boundInt;symbol=cancel;" vertex="1" parent="u7_L2m57r1zxXIOoEbh2-12">
          <mxGeometry x="960" y="15" width="50" height="50" as="geometry" />
        </mxCell>
        <mxCell id="u7_L2m57r1zxXIOoEbh2-57" value="sim" style="points=[[0.145,0.145,0],[0.5,0,0],[0.855,0.145,0],[1,0.5,0],[0.855,0.855,0],[0.5,1,0],[0.145,0.855,0],[0,0.5,0]];shape=mxgraph.bpmn.event;html=1;verticalLabelPosition=bottom;labelBackgroundColor=#ffffff;verticalAlign=top;align=center;perimeter=ellipsePerimeter;outlineConnect=0;aspect=fixed;outline=catching;symbol=link;" vertex="1" parent="u7_L2m57r1zxXIOoEbh2-12">
          <mxGeometry x="960" y="125" width="50" height="50" as="geometry" />
        </mxCell>
        <mxCell id="u7_L2m57r1zxXIOoEbh2-59" style="edgeStyle=orthogonalEdgeStyle;rounded=0;orthogonalLoop=1;jettySize=auto;html=1;entryX=0;entryY=0.5;entryDx=0;entryDy=0;entryPerimeter=0;" edge="1" parent="u7_L2m57r1zxXIOoEbh2-12" source="u7_L2m57r1zxXIOoEbh2-54" target="u7_L2m57r1zxXIOoEbh2-56">
          <mxGeometry relative="1" as="geometry" />
        </mxCell>
        <mxCell id="u7_L2m57r1zxXIOoEbh2-13" value="caixa" style="swimlane;horizontal=0;whiteSpace=wrap;html=1;" vertex="1" parent="1">
          <mxGeometry x="10" y="350" width="1060" height="220" as="geometry" />
        </mxCell>
        <mxCell id="u7_L2m57r1zxXIOoEbh2-35" style="edgeStyle=orthogonalEdgeStyle;rounded=0;orthogonalLoop=1;jettySize=auto;html=1;entryX=1;entryY=0.5;entryDx=0;entryDy=0;" edge="1" parent="u7_L2m57r1zxXIOoEbh2-13" source="u7_L2m57r1zxXIOoEbh2-32" target="u7_L2m57r1zxXIOoEbh2-34">
          <mxGeometry relative="1" as="geometry" />
        </mxCell>
        <mxCell id="u7_L2m57r1zxXIOoEbh2-39" style="edgeStyle=orthogonalEdgeStyle;rounded=0;orthogonalLoop=1;jettySize=auto;html=1;exitX=1;exitY=0.5;exitDx=0;exitDy=0;" edge="1" parent="u7_L2m57r1zxXIOoEbh2-13" source="u7_L2m57r1zxXIOoEbh2-32" target="u7_L2m57r1zxXIOoEbh2-38">
          <mxGeometry relative="1" as="geometry" />
        </mxCell>
        <mxCell id="u7_L2m57r1zxXIOoEbh2-32" value="biometria validada?" style="rhombus;" vertex="1" parent="u7_L2m57r1zxXIOoEbh2-13">
          <mxGeometry x="238.75" y="80" width="162.5" height="120" as="geometry" />
        </mxCell>
        <mxCell id="u7_L2m57r1zxXIOoEbh2-37" style="edgeStyle=orthogonalEdgeStyle;rounded=0;orthogonalLoop=1;jettySize=auto;html=1;exitX=0;exitY=0.5;exitDx=0;exitDy=0;entryX=0.5;entryY=1;entryDx=0;entryDy=0;" edge="1" parent="u7_L2m57r1zxXIOoEbh2-13" source="u7_L2m57r1zxXIOoEbh2-34" target="u7_L2m57r1zxXIOoEbh2-36">
          <mxGeometry relative="1" as="geometry" />
        </mxCell>
        <mxCell id="u7_L2m57r1zxXIOoEbh2-34" value="não" style="rounded=1;whiteSpace=wrap;html=1;" vertex="1" parent="u7_L2m57r1zxXIOoEbh2-13">
          <mxGeometry x="110" y="150" width="70" height="40" as="geometry" />
        </mxCell>
        <mxCell id="u7_L2m57r1zxXIOoEbh2-36" value="Mensagem de erro na validação biométrica" style="rounded=1;whiteSpace=wrap;html=1;" vertex="1" parent="u7_L2m57r1zxXIOoEbh2-13">
          <mxGeometry x="30" y="60" width="120" height="60" as="geometry" />
        </mxCell>
        <mxCell id="u7_L2m57r1zxXIOoEbh2-38" value="sim" style="rounded=1;whiteSpace=wrap;html=1;" vertex="1" parent="u7_L2m57r1zxXIOoEbh2-13">
          <mxGeometry x="440" y="150" width="70" height="40" as="geometry" />
        </mxCell>
        <mxCell id="u7_L2m57r1zxXIOoEbh2-42" value="" style="points=[[0.145,0.145,0],[0.5,0,0],[0.855,0.145,0],[1,0.5,0],[0.855,0.855,0],[0.5,1,0],[0.145,0.855,0],[0,0.5,0]];shape=mxgraph.bpmn.event;html=1;verticalLabelPosition=bottom;labelBackgroundColor=#ffffff;verticalAlign=top;align=center;perimeter=ellipsePerimeter;outlineConnect=0;aspect=fixed;outline=end;symbol=escalation;" vertex="1" parent="u7_L2m57r1zxXIOoEbh2-13">
          <mxGeometry x="200" y="30" width="50" height="50" as="geometry" />
        </mxCell>
        <mxCell id="u7_L2m57r1zxXIOoEbh2-45" style="edgeStyle=orthogonalEdgeStyle;rounded=0;orthogonalLoop=1;jettySize=auto;html=1;exitX=1;exitY=0.5;exitDx=0;exitDy=0;entryX=0;entryY=0.5;entryDx=0;entryDy=0;entryPerimeter=0;" edge="1" parent="u7_L2m57r1zxXIOoEbh2-13" source="u7_L2m57r1zxXIOoEbh2-36" target="u7_L2m57r1zxXIOoEbh2-42">
          <mxGeometry relative="1" as="geometry" />
        </mxCell>
        <mxCell id="u7_L2m57r1zxXIOoEbh2-46" value="" style="points=[[0.145,0.145,0],[0.5,0,0],[0.855,0.145,0],[1,0.5,0],[0.855,0.855,0],[0.5,1,0],[0.145,0.855,0],[0,0.5,0]];shape=mxgraph.bpmn.event;html=1;verticalLabelPosition=bottom;labelBackgroundColor=#ffffff;verticalAlign=top;align=center;perimeter=ellipsePerimeter;outlineConnect=0;aspect=fixed;outline=catching;symbol=link;" vertex="1" parent="u7_L2m57r1zxXIOoEbh2-13">
          <mxGeometry x="440" y="30" width="50" height="50" as="geometry" />
        </mxCell>
        <mxCell id="u7_L2m57r1zxXIOoEbh2-47" style="edgeStyle=orthogonalEdgeStyle;rounded=0;orthogonalLoop=1;jettySize=auto;html=1;exitX=0.5;exitY=0;exitDx=0;exitDy=0;entryX=0.5;entryY=1;entryDx=0;entryDy=0;entryPerimeter=0;" edge="1" parent="u7_L2m57r1zxXIOoEbh2-13" source="u7_L2m57r1zxXIOoEbh2-38" target="u7_L2m57r1zxXIOoEbh2-46">
          <mxGeometry relative="1" as="geometry" />
        </mxCell>
        <mxCell id="u7_L2m57r1zxXIOoEbh2-62" value="" style="points=[[0.145,0.145,0],[0.5,0,0],[0.855,0.145,0],[1,0.5,0],[0.855,0.855,0],[0.5,1,0],[0.145,0.855,0],[0,0.5,0]];shape=mxgraph.bpmn.event;html=1;verticalLabelPosition=bottom;labelBackgroundColor=#ffffff;verticalAlign=top;align=center;perimeter=ellipsePerimeter;outlineConnect=0;aspect=fixed;outline=catching;symbol=link;" vertex="1" parent="u7_L2m57r1zxXIOoEbh2-13">
          <mxGeometry x="730" y="100" width="50" height="50" as="geometry" />
        </mxCell>
        <mxCell id="u7_L2m57r1zxXIOoEbh2-63" value="" style="points=[[0.145,0.145,0],[0.5,0,0],[0.855,0.145,0],[1,0.5,0],[0.855,0.855,0],[0.5,1,0],[0.145,0.855,0],[0,0.5,0]];shape=mxgraph.bpmn.event;html=1;verticalLabelPosition=bottom;labelBackgroundColor=#ffffff;verticalAlign=top;align=center;perimeter=ellipsePerimeter;outlineConnect=0;aspect=fixed;outline=end;symbol=terminate2;" vertex="1" parent="u7_L2m57r1zxXIOoEbh2-13">
          <mxGeometry x="910" y="100" width="50" height="50" as="geometry" />
        </mxCell>
        <mxCell id="u7_L2m57r1zxXIOoEbh2-64" style="edgeStyle=orthogonalEdgeStyle;rounded=0;orthogonalLoop=1;jettySize=auto;html=1;exitX=1;exitY=0.5;exitDx=0;exitDy=0;exitPerimeter=0;entryX=0;entryY=0.5;entryDx=0;entryDy=0;entryPerimeter=0;" edge="1" parent="u7_L2m57r1zxXIOoEbh2-13" source="u7_L2m57r1zxXIOoEbh2-62" target="u7_L2m57r1zxXIOoEbh2-63">
          <mxGeometry relative="1" as="geometry" />
        </mxCell>
        <mxCell id="u7_L2m57r1zxXIOoEbh2-33" style="edgeStyle=orthogonalEdgeStyle;rounded=0;orthogonalLoop=1;jettySize=auto;html=1;exitX=0.5;exitY=0;exitDx=0;exitDy=0;entryX=0.5;entryY=1;entryDx=0;entryDy=0;" edge="1" parent="1" source="u7_L2m57r1zxXIOoEbh2-30" target="u7_L2m57r1zxXIOoEbh2-32">
          <mxGeometry relative="1" as="geometry" />
        </mxCell>
      </root>
    </mxGraphModel>
  </diagram>
</mxfile>
